#Comment line ignore any data following # character 
#Hierarchical Translation and Rotation (.htr) file 
[Header]	
#Header keywords are followed by a single value 
FileType HTR		#Single word string
DataType HTRS		#Translation followed by rotation and scale data
FileVersion 1		#integer
NumSegments 84		#integer
NumFrames 2		#integer
DataFrameRate 30		#integer, data frame rate in this file
EulerRotationOrder ZYX
CalibrationUnits mm
RotationUnits Degrees
GlobalAxisofGravity Y
BoneLengthAxis Y
ScaleFactor 1.00
[SegmentNames&Hierarchy]
#CHILD	PARENT
MASTER GLOBAL
root MASTER
chest root
L_mid_tent01 root
R_mid_tent01 root
spine01 root
Bip01_Neck chest
L_humerus chest
R_humerus chest
weapon_bone chest
Bip01_Head Bip01_Neck
eye_left_bone Bip01_Head
eye_right_bone Bip01_Head
L_forearm L_humerus
L_front_hand L_forearm
L_weapon_bone L_forearm
L_front_hand01_01 L_front_hand
L_front_hand02_01 L_front_hand
L_front_hand03_01 L_front_hand
L_front_hand01_02 L_front_hand01_01
L_front_hand02_02 L_front_hand02_01
L_front_hand03_02 L_front_hand03_01
R_forearm R_humerus
R_front_hand R_forearm
R_weapon_bone R_forearm
R_front_hand01_01 R_front_hand
R_front_hand02_01 R_front_hand
R_front_hand03_01 R_front_hand
R_front_hand01_02 R_front_hand01_01
R_front_hand02_02 R_front_hand02_01
R_front_hand03_02 R_front_hand03_01
null_rope01_connect L_mid_tent01
Rope1_Seg01 null_rope01_connect
Rope1_Seg02 Rope1_Seg01
Rope1_Seg03 Rope1_Seg02
Rope1_Seg04 Rope1_Seg03
Rope1_Seg05 Rope1_Seg04
Rope1_Seg06 Rope1_Seg05
Rope1_Seg07 Rope1_Seg06
Rope1_Seg09 Rope1_Seg07
L_mid_hand01 Rope1_Seg09
L_mid_hand02 Rope1_Seg09
L_mid_hand03 Rope1_Seg09
null_rope02_connect R_mid_tent01
Rope2_Seg01 null_rope02_connect
Rope2_Seg02 Rope2_Seg01
Rope2_Seg03 Rope2_Seg02
Rope2_Seg04 Rope2_Seg03
Rope2_Seg05 Rope2_Seg04
Rope2_Seg06 Rope2_Seg05
Rope2_Seg07 Rope2_Seg06
Rope2_Seg09 Rope2_Seg07
R_mid_hand01 Rope2_Seg09
R_mid_hand02 Rope2_Seg09
R_mid_hand03 Rope2_Seg09
spine02 spine01
spine03 spine02
pelvis spine03
null_rope03_connect pelvis
null_rope04_connect pelvis
Rope3_Seg01 null_rope03_connect
Rope3_Seg02 Rope3_Seg01
Rope3_Seg03 Rope3_Seg02
Rope3_Seg04 Rope3_Seg03
Rope3_Seg05 Rope3_Seg04
Rope3_Seg06 Rope3_Seg05
Rope3_Seg07 Rope3_Seg06
Rope3_Seg08 Rope3_Seg07
Rope3_Seg09 Rope3_Seg08
R_rear_hand01 Rope3_Seg09
R_rear_hand02 Rope3_Seg09
R_rear_hand03 Rope3_Seg09
Rope4_Seg01 null_rope04_connect
Rope4_Seg02 Rope4_Seg01
Rope4_Seg03 Rope4_Seg02
Rope4_Seg04 Rope4_Seg03
Rope4_Seg05 Rope4_Seg04
Rope4_Seg06 Rope4_Seg05
Rope4_Seg07 Rope4_Seg06
Rope4_Seg08 Rope4_Seg07
Rope4_Seg09 Rope4_Seg08
L_rear_hand01 Rope4_Seg09
L_rear_hand02 Rope4_Seg09
L_rear_hand03 Rope4_Seg09
[BasePosition]
#SegmentName Tx, Ty, Tz, Rx, Ry, Rz, BoneLength
MASTER 0.000000 0.000000 0.000000 -90.000000 0.000000 0.000000 10.000000 
root 0.000000 0.000000 0.000000 0.000000 0.000000 0.000000 10.000000 
chest 0.000000 0.000000 0.000000 0.000000 0.000000 0.000000 10.000000 
L_mid_tent01 0.000000 0.000000 0.000000 0.000000 0.000000 0.000000 10.000000 
R_mid_tent01 0.000000 0.000000 0.000000 0.000000 0.000000 0.000000 10.000000 
spine01 0.000000 0.000000 0.000000 0.000000 0.000000 0.000000 10.000000 
Bip01_Neck 0.000000 0.000000 0.000000 0.000000 0.000000 0.000000 10.000000 
L_humerus 0.000000 0.000000 0.000000 0.000000 0.000000 0.000000 10.000000 
R_humerus 0.000000 0.000000 0.000000 0.000000 0.000000 0.000000 10.000000 
weapon_bone 0.000000 0.000000 0.000000 0.000000 0.000000 0.000000 10.000000 
Bip01_Head 0.000000 0.000000 0.000000 0.000000 0.000000 0.000000 10.000000 
eye_left_bone 0.000000 0.000000 0.000000 0.000000 0.000000 0.000000 10.000000 
eye_right_bone 0.000000 0.000000 0.000000 0.000000 0.000000 0.000000 10.000000 
L_forearm 0.000000 0.000000 0.000000 0.000000 0.000000 0.000000 10.000000 
L_front_hand 0.000000 0.000000 0.000000 0.000000 0.000000 0.000000 10.000000 
L_weapon_bone 0.000000 0.000000 0.000000 0.000000 0.000000 0.000000 10.000000 
L_front_hand01_01 0.000000 0.000000 0.000000 0.000000 0.000000 0.000000 10.000000 
L_front_hand02_01 0.000000 0.000000 0.000000 0.000000 0.000000 0.000000 10.000000 
L_front_hand03_01 0.000000 0.000000 0.000000 0.000000 0.000000 0.000000 10.000000 
L_front_hand01_02 0.000000 0.000000 0.000000 0.000000 0.000000 0.000000 10.000000 
L_front_hand02_02 0.000000 0.000000 0.000000 0.000000 0.000000 0.000000 10.000000 
L_front_hand03_02 0.000000 0.000000 0.000000 0.000000 0.000000 0.000000 10.000000 
R_forearm 0.000000 0.000000 0.000000 0.000000 0.000000 0.000000 10.000000 
R_front_hand 0.000000 0.000000 0.000000 0.000000 0.000000 0.000000 10.000000 
R_weapon_bone 0.000000 0.000000 0.000000 0.000000 0.000000 0.000000 10.000000 
R_front_hand01_01 0.000000 0.000000 0.000000 0.000000 0.000000 0.000000 10.000000 
R_front_hand02_01 0.000000 0.000000 0.000000 0.000000 0.000000 0.000000 10.000000 
R_front_hand03_01 0.000000 0.000000 0.000000 0.000000 0.000000 0.000000 10.000000 
R_front_hand01_02 0.000000 0.000000 0.000000 0.000000 0.000000 0.000000 10.000000 
R_front_hand02_02 0.000000 0.000000 0.000000 0.000000 0.000000 0.000000 10.000000 
R_front_hand03_02 0.000000 0.000000 0.000000 0.000000 0.000000 0.000000 10.000000 
null_rope01_connect 0.000000 0.000000 0.000000 0.000000 0.000000 0.000000 10.000000 
Rope1_Seg01 0.000000 0.000000 0.000000 0.000000 0.000000 0.000000 10.000000 
Rope1_Seg02 0.000000 0.000000 0.000000 0.000000 0.000000 0.000000 10.000000 
Rope1_Seg03 0.000000 0.000000 0.000000 0.000000 0.000000 0.000000 10.000000 
Rope1_Seg04 0.000000 0.000000 0.000000 0.000000 0.000000 0.000000 10.000000 
Rope1_Seg05 0.000000 0.000000 0.000000 0.000000 0.000000 0.000000 10.000000 
Rope1_Seg06 0.000000 0.000000 0.000000 0.000000 0.000000 0.000000 10.000000 
Rope1_Seg07 0.000000 0.000000 0.000000 0.000000 0.000000 0.000000 10.000000 
Rope1_Seg09 0.000000 0.000000 0.000000 0.000000 0.000000 0.000000 10.000000 
L_mid_hand01 0.000000 0.000000 0.000000 0.000000 0.000000 0.000000 10.000000 
L_mid_hand02 0.000000 0.000000 0.000000 0.000000 0.000000 0.000000 10.000000 
L_mid_hand03 0.000000 0.000000 0.000000 0.000000 0.000000 0.000000 10.000000 
null_rope02_connect 0.000000 0.000000 0.000000 0.000000 0.000000 0.000000 10.000000 
Rope2_Seg01 0.000000 0.000000 0.000000 0.000000 0.000000 0.000000 10.000000 
Rope2_Seg02 0.000000 0.000000 0.000000 0.000000 0.000000 0.000000 10.000000 
Rope2_Seg03 0.000000 0.000000 0.000000 0.000000 0.000000 0.000000 10.000000 
Rope2_Seg04 0.000000 0.000000 0.000000 0.000000 0.000000 0.000000 10.000000 
Rope2_Seg05 0.000000 0.000000 0.000000 0.000000 0.000000 0.000000 10.000000 
Rope2_Seg06 0.000000 0.000000 0.000000 0.000000 0.000000 0.000000 10.000000 
Rope2_Seg07 0.000000 0.000000 0.000000 0.000000 0.000000 0.000000 10.000000 
Rope2_Seg09 0.000000 0.000000 0.000000 0.000000 0.000000 0.000000 10.000000 
R_mid_hand01 0.000000 0.000000 0.000000 0.000000 0.000000 0.000000 10.000000 
R_mid_hand02 0.000000 0.000000 0.000000 0.000000 0.000000 0.000000 10.000000 
R_mid_hand03 0.000000 0.000000 0.000000 0.000000 0.000000 0.000000 10.000000 
spine02 0.000000 0.000000 0.000000 0.000000 0.000000 0.000000 10.000000 
spine03 0.000000 0.000000 0.000000 0.000000 0.000000 0.000000 10.000000 
pelvis 0.000000 0.000000 0.000000 0.000000 0.000000 0.000000 10.000000 
null_rope03_connect 0.000000 0.000000 0.000000 0.000000 0.000000 0.000000 10.000000 
null_rope04_connect 0.000000 0.000000 0.000000 0.000000 0.000000 0.000000 10.000000 
Rope3_Seg01 0.000000 0.000000 0.000000 0.000000 0.000000 0.000000 10.000000 
Rope3_Seg02 0.000000 0.000000 0.000000 0.000000 0.000000 0.000000 10.000000 
Rope3_Seg03 0.000000 0.000000 0.000000 0.000000 0.000000 0.000000 10.000000 
Rope3_Seg04 0.000000 0.000000 0.000000 0.000000 0.000000 0.000000 10.000000 
Rope3_Seg05 0.000000 0.000000 0.000000 0.000000 0.000000 0.000000 10.000000 
Rope3_Seg06 0.000000 0.000000 0.000000 0.000000 0.000000 0.000000 10.000000 
Rope3_Seg07 0.000000 0.000000 0.000000 0.000000 0.000000 0.000000 10.000000 
Rope3_Seg08 0.000000 0.000000 0.000000 0.000000 0.000000 0.000000 10.000000 
Rope3_Seg09 0.000000 0.000000 0.000000 0.000000 0.000000 0.000000 10.000000 
R_rear_hand01 0.000000 0.000000 0.000000 0.000000 0.000000 0.000000 10.000000 
R_rear_hand02 0.000000 0.000000 0.000000 0.000000 0.000000 0.000000 10.000000 
R_rear_hand03 0.000000 0.000000 0.000000 0.000000 0.000000 0.000000 10.000000 
Rope4_Seg01 0.000000 0.000000 0.000000 0.000000 0.000000 0.000000 10.000000 
Rope4_Seg02 0.000000 0.000000 0.000000 0.000000 0.000000 0.000000 10.000000 
Rope4_Seg03 0.000000 0.000000 0.000000 0.000000 0.000000 0.000000 10.000000 
Rope4_Seg04 0.000000 0.000000 0.000000 0.000000 0.000000 0.000000 10.000000 
Rope4_Seg05 0.000000 0.000000 0.000000 0.000000 0.000000 0.000000 10.000000 
Rope4_Seg06 0.000000 0.000000 0.000000 0.000000 0.000000 0.000000 10.000000 
Rope4_Seg07 0.000000 0.000000 0.000000 0.000000 0.000000 0.000000 10.000000 
Rope4_Seg08 0.000000 0.000000 0.000000 0.000000 0.000000 0.000000 10.000000 
Rope4_Seg09 0.000000 0.000000 0.000000 0.000000 0.000000 0.000000 10.000000 
L_rear_hand01 0.000000 0.000000 0.000000 0.000000 0.000000 0.000000 10.000000 
L_rear_hand02 0.000000 0.000000 0.000000 0.000000 0.000000 0.000000 10.000000 
L_rear_hand03 0.000000 0.000000 0.000000 0.000000 0.000000 0.000000 10.000000 
#Beginning of Data. Separated by tabs
#Fr	Tx	Ty	Tz	Rx	Ry	Rz	SF
[MASTER]
1 0.000000 0.000000 0.000000 0.001660 0.001660 0.001660 0.000000
2 0.000000 0.000000 0.000000 0.001660 0.001660 0.001660 0.000000
[root]
1 -27.884636 -56.740368 5200.800781 -65.894363 -12.339477 -81.177124 5201.185059
2 -28.704523 -56.302311 5177.888184 -70.516693 -12.387743 -82.782967 5178.273926
[chest]
1 -84.512650 -34.090519 0.000000 1.278875 1.867148 138.578964 91.129311
2 -84.512650 -34.090519 0.000000 0.114664 0.142567 141.838333 91.129311
[L_mid_tent01]
1 27.299271 22.178650 -249.918350 -165.199005 49.141167 -69.132530 252.381302
2 27.299265 22.178665 -249.918365 -162.726624 51.374950 -67.800720 252.381332
[R_mid_tent01]
1 23.228794 24.509907 226.238495 -162.480804 -71.567009 51.068531 228.744751
2 23.228794 24.509907 226.238495 -162.072754 -71.974510 50.898937 228.744751
[spine01]
1 -0.361383 -0.195265 0.000000 0.002062 0.001122 32.879829 0.410763
2 -0.361383 -0.195265 0.000000 0.002062 0.001122 32.879829 0.410763
[Bip01_Neck]
1 165.484543 71.581718 0.000119 176.643677 -1.657967 43.431915 180.302734
2 165.484543 71.581718 0.000119 176.643677 -1.657967 43.431911 180.302734
[L_humerus]
1 -13.983130 -135.272980 -120.471481 160.867493 69.003693 -108.886528 181.680161
2 -13.983130 -135.272980 -120.471481 158.703888 69.591377 -110.461365 181.680161
[R_humerus]
1 -13.983309 -135.273102 125.287651 -173.799088 -69.221382 -90.497108 184.909012
2 -13.983309 -135.273102 125.287651 -173.021210 -68.196495 -91.651779 184.909012
[weapon_bone]
1 235.964890 -300.705902 0.000000 0.000000 -89.951546 -128.212341 382.234833
2 235.964890 -300.705902 0.000000 0.000000 -89.951546 -128.212341 382.234833
[Bip01_Head]
1 213.330841 186.011948 7.948455 31.601978 5.838915 -43.837597 283.149567
2 213.330215 186.017029 7.883586 32.079391 5.932026 -43.837669 283.150604
[eye_left_bone]
1 -24.626970 125.451866 -64.772606 0.000000 -90.000000 -99.840431 143.318359
2 -24.626970 125.451866 -64.772606 0.000000 -90.000000 -99.840431 143.318359
[eye_right_bone]
1 -24.626970 125.451866 64.327362 0.000000 -89.965736 80.156380 143.117676
2 -24.626970 125.451866 64.327362 0.000000 -89.965736 80.156380 143.117676
[L_forearm]
1 322.776093 0.000000 -0.000119 0.000239 -0.002335 -101.685837 322.776093
2 322.776093 0.000000 -0.000119 0.000229 -0.002336 -101.201393 322.776093
[L_front_hand]
1 241.149185 -0.042021 -3.300071 -178.466171 -1.674366 -33.974518 241.171753
2 241.149185 -0.042021 -3.300071 -178.478226 -1.684063 -33.586967 241.171753
[L_weapon_bone]
1 156.183838 0.000000 0.000000 0.000014 0.000007 0.000001 156.183838
2 156.183838 0.000000 0.000000 0.000014 0.000007 0.000001 156.183838
[L_front_hand01_01]
1 86.095154 20.947098 -0.655860 -0.314009 -0.508446 69.409256 88.609184
2 86.095154 20.947098 -0.655860 -0.321086 -0.505796 70.180763 88.609184
[L_front_hand02_01]
1 86.935165 -11.437475 24.513514 145.957626 -56.902191 -51.461929 91.046425
2 86.935165 -11.437475 24.513514 146.960205 -57.330383 -52.655548 91.046425
[L_front_hand03_01]
1 86.637497 -14.123976 -20.424902 -146.049988 55.121513 -53.295567 90.126129
2 86.637497 -14.123976 -20.424902 -146.981247 55.547363 -54.427380 90.126129
[L_front_hand01_02]
1 71.020905 -0.000179 0.000030 0.000318 -0.002326 -105.574532 71.020905
2 71.020905 -0.000179 0.000030 0.000319 -0.002325 -105.627251 71.020905
[L_front_hand02_02]
1 71.020927 -0.000119 0.000060 0.000318 -0.002326 -105.574532 71.020927
2 71.020927 -0.000119 0.000060 0.000319 -0.002325 -105.627251 71.020927
[L_front_hand03_02]
1 71.020905 -0.000060 0.000060 0.000318 -0.002326 -105.574532 71.020905
2 71.020905 -0.000060 0.000060 0.000319 -0.002325 -105.627251 71.020905
[R_forearm]
1 322.776428 -0.000060 0.000030 0.211324 0.032857 -99.558258 322.776428
2 322.776428 -0.000060 0.000030 0.211551 0.030876 -99.113426 322.776428
[R_front_hand]
1 238.847015 -0.006795 2.210259 -1.181068 -10.896460 -34.065952 238.857239
2 238.847015 -0.006795 2.210259 -1.267996 -10.886651 -33.606091 238.857239
[R_weapon_bone]
1 155.664093 0.002503 -0.000030 0.003487 0.001180 -90.988930 155.664078
2 155.664093 0.002503 -0.000030 0.003487 0.001180 -90.988930 155.664078
[R_front_hand01_01]
1 87.624611 14.231146 22.918642 -146.552551 -57.155426 52.280727 91.683487
2 87.624611 14.231146 22.918642 -148.462082 -57.932716 54.541962 91.683487
[R_front_hand02_01]
1 89.356956 14.367283 -19.491137 146.998062 55.533039 54.685249 92.579636
2 89.356956 14.367283 -19.491137 148.801498 56.299915 56.856495 92.579636
[R_front_hand03_01]
1 87.286232 -22.307278 -0.143439 0.117983 -0.440813 -70.109169 90.091743
2 87.286232 -22.307278 -0.143439 0.131531 -0.433516 -71.547462 90.091743
[R_front_hand01_02]
1 71.020905 0.000060 0.000119 0.002323 -0.000334 106.381714 71.020905
2 71.020905 0.000060 0.000119 0.002323 -0.000334 106.381714 71.020905
[R_front_hand02_02]
1 71.020844 -0.000030 -0.000119 0.002323 -0.000334 106.381714 71.020836
2 71.020844 -0.000030 -0.000119 0.002323 -0.000334 106.381714 71.020836
[R_front_hand03_02]
1 71.020905 0.000000 0.000030 0.002323 -0.000334 106.381714 71.020905
2 71.020905 0.000000 0.000030 0.002323 -0.000334 106.381714 71.020905
[null_rope01_connect]
1 328.732483 0.000000 -0.000238 -166.764069 13.280088 -157.956024 328.732483
2 328.732483 0.000000 -0.000238 -165.969177 15.480547 -159.158981 328.732483
[Rope1_Seg01]
1 -0.000038 -0.000114 0.000095 132.582901 26.554895 -159.901596 0.000154
2 -0.000038 -0.000114 0.000096 134.440689 28.361727 -161.487473 0.000154
[Rope1_Seg02]
1 139.999863 -0.000179 0.000000 -14.581544 3.492086 19.807728 139.999863
2 139.999863 -0.000179 0.000000 -16.139624 5.093708 23.770067 139.999863
[Rope1_Seg03]
1 139.999924 0.000060 -0.000060 -7.818762 -3.848792 25.592972 139.999924
2 139.999924 0.000060 -0.000060 -6.611514 -3.287821 24.088673 139.999924
[Rope1_Seg04]
1 139.999924 -0.000060 -0.000119 -2.019528 -4.844787 18.343863 139.999924
2 139.999924 -0.000060 -0.000119 -1.426127 -3.172377 14.557693 139.999924
[Rope1_Seg05]
1 139.999832 0.000119 -0.000060 4.135914 0.993255 28.954187 139.999832
2 139.999832 0.000119 -0.000060 1.652428 0.271573 21.166832 139.999832
[Rope1_Seg06]
1 139.999954 0.000119 -0.000060 12.892189 3.550604 26.409580 139.999954
2 139.999954 0.000119 -0.000060 8.194907 1.877435 24.656790 139.999954
[Rope1_Seg07]
1 139.999985 0.000060 0.000000 8.127137 3.295516 10.527205 139.999985
2 139.999985 0.000060 0.000000 7.070100 2.170757 12.280879 139.999985
[Rope1_Seg09]
1 121.602913 0.000119 -0.000089 -89.793175 -1.359789 0.847147 121.602913
2 121.602913 0.000119 -0.000089 -89.793175 -1.359789 0.847147 121.602913
[L_mid_hand01]
1 103.859421 1.038730 8.195221 130.544373 -67.584534 -38.866947 104.187431
2 103.859421 1.038730 8.195221 130.544373 -67.584534 -38.866943 104.187431
[L_mid_hand02]
1 105.572853 -4.139662 -10.864139 -168.923172 43.409309 -73.498894 106.211075
2 105.572853 -4.139662 -10.864139 -168.923172 43.409309 -73.498886 106.211075
[L_mid_hand03]
1 104.641464 17.579376 -3.913581 -6.012627 17.808176 74.893669 106.179977
2 104.641464 17.579376 -3.913581 -6.012627 17.808174 74.893669 106.179977
[null_rope02_connect]
1 328.732849 0.000179 -0.000119 -149.032089 -9.746376 -6.407141 328.732849
2 328.732849 0.000179 -0.000119 -148.564728 -5.004382 -6.216904 328.732849
[Rope2_Seg01]
1 -0.000076 0.000098 0.000000 -52.598797 20.297295 31.567686 0.000124
2 -0.000070 0.000098 0.000000 -56.657459 26.470392 27.085350 0.000121
[Rope2_Seg02]
1 139.999741 -0.000060 -0.000119 3.947052 -10.918275 -7.050741 139.999756
2 139.999741 -0.000060 -0.000119 4.580767 -9.897620 -6.414351 139.999756
[Rope2_Seg03]
1 140.000107 0.000030 0.000000 4.173515 -20.850971 -11.970349 140.000107
2 140.000107 0.000030 0.000000 5.947864 -20.962999 -11.660300 140.000107
[Rope2_Seg04]
1 139.999802 0.000000 -0.000060 -1.343840 -26.468248 -13.556597 139.999802
2 139.999802 0.000000 -0.000060 0.597611 -29.818985 -14.097502 139.999802
[Rope2_Seg05]
1 139.999985 -0.000060 0.000119 -6.497615 -15.056585 -12.806767 139.999985
2 139.999985 -0.000060 0.000119 -6.594294 -17.594353 -14.665190 139.999985
[Rope2_Seg06]
1 139.999893 -0.000030 -0.000119 -8.740624 -10.793800 -14.898868 139.999893
2 139.999893 -0.000030 -0.000119 -10.217135 -14.001322 -17.726250 139.999893
[Rope2_Seg07]
1 139.999893 0.000060 -0.000060 -6.810039 -6.241205 -10.918008 139.999893
2 139.999893 0.000060 -0.000060 -7.805045 -6.988411 -12.466022 139.999893
[Rope2_Seg09]
1 121.338966 0.000089 -0.000060 33.793236 -1.359788 -0.847141 121.338966
2 121.338966 0.000089 -0.000060 33.793236 -1.359788 -0.847141 121.338966
[R_mid_hand01]
1 104.680779 11.144459 -10.335981 -16.212063 45.237240 70.462845 105.778534
2 104.680779 11.144459 -10.335981 -16.212063 45.237247 70.462852 105.778534
[R_mid_hand02]
1 104.070427 2.443552 8.231699 49.067371 -67.749794 39.286461 104.424065
2 104.070427 2.443552 8.231699 49.067368 -67.749771 39.286453 104.424065
[R_mid_hand03]
1 106.028137 -11.221827 -5.996406 -177.101105 15.551026 -76.585571 106.788818
2 106.028137 -11.221827 -5.996406 -177.101105 15.551026 -76.585571 106.788818
[spine02]
1 129.756927 0.001550 0.000119 -1.187915 -4.226529 9.077457 129.756927
2 129.756927 0.001550 0.000119 -1.190607 -4.203568 9.131866 129.756927
[spine03]
1 78.613739 0.083923 -4.898834 0.931034 4.808975 2.793336 78.766266
2 78.613747 0.083844 -4.898839 0.928703 4.771307 2.759884 78.766281
[pelvis]
1 169.435242 0.051022 0.000000 0.023884 0.064292 -13.616147 169.435257
2 169.435242 0.051022 0.000000 0.025611 0.049577 -13.688378 169.435257
[null_rope03_connect]
1 -1.257226 -2.466202 137.391083 29.713345 -63.510918 39.770023 137.418976
2 -1.257226 -2.466202 137.391083 30.404011 -68.655083 39.818600 137.418976
[null_rope04_connect]
1 -1.259640 -2.480268 -137.844437 29.713345 -63.510918 39.770023 137.872513
2 -1.259640 -2.480268 -137.844437 30.404011 -68.655083 39.818600 137.872513
[Rope3_Seg01]
1 -0.000000 -0.000038 0.000305 -130.690582 -2.535222 -61.533730 0.000308
2 -0.000001 -0.000036 0.000295 -130.524551 -1.553700 -63.742290 0.000297
[Rope3_Seg02]
1 139.999924 -0.000119 0.000060 -1.972015 2.747452 -6.263172 139.999924
2 139.999924 -0.000119 0.000060 -1.779745 2.682973 -6.653735 139.999924
[Rope3_Seg03]
1 139.999924 -0.000119 0.000119 -4.456459 4.815563 -10.130654 139.999924
2 139.999924 -0.000119 0.000119 -4.061716 4.536711 -10.439960 139.999924
[Rope3_Seg04]
1 139.999924 0.000119 0.000000 -12.917049 10.003897 -18.845125 139.999924
2 139.999924 0.000119 0.000000 -11.419103 8.876637 -18.383530 139.999924
[Rope3_Seg05]
1 139.999924 -0.000238 0.000060 -26.989456 19.022110 -25.327234 139.999924
2 139.999924 -0.000238 0.000060 -23.994005 16.139124 -24.142771 139.999924
[Rope3_Seg06]
1 139.999893 -0.000119 -0.000060 -7.373561 10.879529 -3.185815 139.999893
2 139.999893 -0.000119 -0.000060 -7.245177 9.274346 -3.843739 139.999893
[Rope3_Seg07]
1 139.999771 0.000060 -0.000119 1.116475 1.663607 4.168843 139.999771
2 139.999771 0.000060 -0.000119 2.063444 0.192352 4.527401 139.999771
[Rope3_Seg08]
1 139.999985 -0.000060 0.000000 -1.324161 5.222071 0.891909 139.999985
2 139.999985 -0.000060 0.000000 -0.968647 3.918274 1.002831 139.999985
[Rope3_Seg09]
1 90.185997 -0.000179 -0.000060 89.793228 -1.359877 -0.847183 90.185997
2 90.185997 -0.000179 -0.000060 89.793228 -1.359877 -0.847183 90.185997
[R_rear_hand01]
1 103.366196 -6.073594 -10.757982 -177.714203 24.565960 -73.910950 104.101845
2 103.366196 -6.073594 -10.757982 -177.714203 24.565966 -73.910950 104.101845
[R_rear_hand02]
1 100.509819 12.039542 -7.992327 -12.874833 36.868488 72.167213 101.543350
2 100.509819 12.039542 -7.992327 -12.874829 36.868488 72.167213 101.543350
[R_rear_hand03]
1 101.539970 5.215704 5.435467 71.484581 -71.816628 21.513813 101.819031
2 101.539970 5.215704 5.435467 71.484581 -71.816628 21.513813 101.819031
[Rope4_Seg01]
1 0.000019 -0.000038 -0.000610 51.886799 -15.001534 -115.152222 0.000612
2 0.000019 -0.000038 -0.000595 52.399120 -15.842841 -116.223061 0.000596
[Rope4_Seg02]
1 139.999985 0.000060 0.000119 1.578273 -3.867952 4.195552 139.999985
2 139.999985 0.000060 0.000119 1.547473 -4.646957 3.028163 139.999985
[Rope4_Seg03]
1 139.999924 0.000000 -0.000238 2.359237 -5.078737 5.856468 139.999924
2 139.999924 0.000000 -0.000238 2.717988 -6.707848 4.670475 139.999924
[Rope4_Seg04]
1 139.999985 0.000000 0.000119 3.638824 -6.797991 8.523024 139.999985
2 139.999985 0.000000 0.000119 5.558449 -10.366411 8.535195 139.999985
[Rope4_Seg05]
1 139.999802 -0.000060 -0.000119 5.520149 -8.807465 12.295588 139.999802
2 139.999802 -0.000060 -0.000119 9.759165 -12.850930 13.489337 139.999802
[Rope4_Seg06]
1 139.999924 0.000000 0.000060 5.421620 -5.791795 12.075558 139.999924
2 139.999924 0.000000 0.000060 12.260377 -12.973666 14.456301 139.999924
[Rope4_Seg07]
1 139.999802 0.000000 0.000000 4.992496 -3.039136 12.896563 139.999802
2 139.999802 0.000000 0.000000 17.868984 -13.724993 23.653254 139.999802
[Rope4_Seg08]
1 139.999924 0.000000 0.000119 2.523058 -2.195466 13.108718 139.999924
2 139.999924 0.000000 0.000119 9.675900 -2.952765 19.657026 139.999924
[Rope4_Seg09]
1 90.185791 0.000060 0.000060 -135.617828 2.228885 0.850567 90.185791
2 90.185791 0.000060 0.000060 -135.617828 2.228885 0.850567 90.185791
[L_rear_hand01]
1 101.696655 -8.392275 -7.654577 -12.874833 -36.868488 107.832779 102.329041
2 101.696655 -8.392275 -7.654577 -12.874829 -36.868488 107.832764 102.329041
[L_rear_hand02]
1 102.726799 -1.568258 5.773216 71.484581 71.816628 158.486160 102.900848
2 102.726799 -1.568258 5.773216 71.484581 71.816628 158.486160 102.900848
[L_rear_hand03]
1 104.552910 9.721220 -10.420293 -177.714203 -24.565960 -106.089035 105.519653
2 104.552910 9.721220 -10.420293 -177.714203 -24.565966 -106.089043 105.519653
